<svg width="90" height="38" viewBox="0 0 90 38" fill="none" xmlns="http://www.w3.org/2000/svg">
<g id="Logo">
<path id="Path" d="M85.8639 37.6851H86.6031C86.6041 37.6907 86.6041 37.6963 86.6031 37.7019H85.8639C85.8654 37.6964 85.8654 37.6907 85.8639 37.6851Z" fill="url(#paint0_linear_1_260)"/>
<path id="Path_2" d="M86.6022 37.7038C86.6032 37.6982 86.6032 37.6926 86.6022 37.687L87.031 37.6842C87.0393 37.701 87.0264 37.7043 86.9922 37.7043C86.8582 37.7029 86.7316 37.7038 86.6022 37.7038Z" fill="url(#paint1_linear_1_260)"/>
<path id="Path_3" d="M61.1537 18.6834C61.1537 16.755 61.1537 14.8266 61.1537 12.8982V9.18872H48.2737C48.2848 9.77026 48.221 10.3501 48.2376 10.9329C48.246 11.2237 48.2376 11.5149 48.2376 11.8056C49.1524 12.115 50.034 12.4434 50.8822 12.7906C51.6602 13.1109 52.4105 13.445 53.1331 13.7928C53.2611 13.847 53.3752 13.9079 53.4732 13.9744C53.8086 14.1219 54.0867 14.2939 54.4092 14.4475C54.5866 14.5335 54.74 14.6294 54.9073 14.7202C55.1845 14.8699 55.4395 15.0269 55.7112 15.1779C56.9734 15.8781 58.0998 16.6244 59.1836 17.3857C59.8144 17.829 60.4262 18.2784 61.0188 18.7337C61.0474 18.7557 61.1583 18.8439 61.1583 18.8439C61.1583 18.8439 61.1537 18.7208 61.1537 18.6834Z" fill="#0066FE"/>
<path id="Shape" fill-rule="evenodd" clip-rule="evenodd" d="M58.3373 28.6131C58.4779 28.7198 58.6186 28.8265 58.7586 28.9334C58.7664 28.9412 58.7732 28.9493 58.7789 28.9575C58.6853 29.0053 58.6381 29.0642 58.5911 29.1229C58.5708 29.1483 58.5506 29.1736 58.5266 29.1979C58.4729 29.2523 58.4201 29.3068 58.3674 29.3614C58.3194 29.411 58.2714 29.4607 58.2226 29.5102C57.9131 29.8242 57.5758 30.1313 57.2062 30.4324C56.6623 30.8904 56.0548 31.3313 55.3877 31.7525C55.2853 31.816 55.0619 31.9505 54.8601 32.0719C54.6849 32.1773 54.526 32.2729 54.4766 32.3039C54.1763 32.4919 53.8557 32.6717 53.5212 32.8467C53.2505 32.9882 52.9797 33.1293 52.696 33.2648C52.6484 33.2876 52.6024 33.3112 52.5564 33.3347C52.5024 33.3624 52.4484 33.39 52.392 33.4162C50.4595 34.3302 48.2734 35.1199 45.8915 35.7643C45.4055 35.8964 44.9102 36.0198 44.4131 36.1411C44.3306 36.1649 44.2422 36.1838 44.1497 36.1975C42.6628 36.5417 41.1175 36.8284 39.5296 37.0547C38.6398 37.179 37.7453 37.2956 36.8342 37.3816C36.1828 37.4431 35.5295 37.4977 34.8707 37.5408C34.7774 37.5466 34.6841 37.5526 34.5908 37.5586C34.2045 37.5836 33.8177 37.6085 33.4292 37.622C33.3208 37.6258 33.2125 37.6297 33.1041 37.6337C32.7301 37.6472 32.3558 37.6607 31.9803 37.6681C31.283 37.6821 30.585 37.6861 29.8865 37.6801C29.3711 37.6767 28.8572 37.6601 28.3435 37.6434C28.2778 37.6413 28.2122 37.6392 28.1465 37.6371C27.6845 37.6225 27.2225 37.5971 26.7605 37.5713C26.2061 37.5399 25.6517 37.4956 25.0973 37.4483C23.6812 37.3276 22.2852 37.1604 20.9197 36.948C20.4235 36.8706 19.932 36.7876 19.4469 36.696C19.4183 36.6897 19.3905 36.6827 19.3637 36.6749C18.9326 36.6033 18.5094 36.5216 18.0959 36.4302C16.4222 36.0811 14.8183 35.6637 13.303 35.1828C13.129 35.1327 12.9628 35.077 12.8059 35.0159C12.494 34.9211 12.1936 34.8184 11.9059 34.7083C10.9287 34.3583 9.99918 33.9804 9.12272 33.5767C8.20093 33.1516 7.33888 32.6993 6.54192 32.2226C6.54192 32.2226 5.87201 31.8101 5.58833 31.6204C3.82532 30.4382 2.4498 29.1405 1.50691 27.7699C1.19459 27.3226 0.935866 26.8804 0.71872 26.4193C0.717486 26.4158 0.715221 26.4109 0.712752 26.4055C0.707827 26.3948 0.702087 26.3823 0.702087 26.3763C0.816505 26.3648 0.931915 26.3531 1.04775 26.3413C1.31919 26.3136 1.59296 26.2857 1.86174 26.261C2.47806 26.2042 13.0757 25.1173 13.0757 25.1173L13.2605 25.1332C13.2628 25.1373 13.2642 25.1408 13.2656 25.1444C13.267 25.1479 13.2684 25.1515 13.2707 25.1556C13.2929 25.1946 13.313 25.2329 13.3331 25.271C13.343 25.2899 13.3529 25.3088 13.3631 25.3276C13.3912 25.3828 13.4218 25.438 13.4524 25.493C13.463 25.5122 13.4736 25.5313 13.4841 25.5504C13.5248 25.6244 13.5701 25.698 13.6172 25.7711C13.6643 25.8442 13.7124 25.9173 13.7632 25.9892C13.814 26.061 13.8667 26.1311 13.9221 26.2042C13.9776 26.2773 14.033 26.3488 14.0931 26.4193C14.1531 26.4898 14.215 26.5599 14.2779 26.6301C14.3407 26.7002 14.4072 26.7694 14.4738 26.8387C14.5403 26.9079 14.6105 26.9763 14.6817 27.0447C14.7528 27.1131 14.8258 27.1811 14.9016 27.2486C14.9773 27.3161 15.054 27.3832 15.1344 27.4499C15.2148 27.5166 15.2952 27.5824 15.3793 27.649C15.4634 27.7157 15.5484 27.7798 15.6353 27.8447C15.9476 28.0766 16.295 28.2977 16.6424 28.5183C16.6492 28.5216 16.6564 28.5248 16.6635 28.528C16.675 28.5331 16.6864 28.5382 16.696 28.5437C17.7263 29.1657 18.9701 29.6857 20.2997 30.1644C20.3373 30.1745 20.3755 30.1843 20.4137 30.1942C20.4975 30.2157 20.5814 30.2373 20.6601 30.2621C21.2956 30.4611 21.957 30.6417 22.6403 30.8028C22.9698 30.8805 23.3077 30.9494 23.6457 31.0183C23.7844 31.0466 23.9232 31.0749 24.0614 31.1038C24.1551 31.1193 24.2487 31.1349 24.3422 31.1506C24.5456 31.1847 24.749 31.2187 24.954 31.2505C26.3118 31.4639 27.7207 31.5986 29.1491 31.6518C29.8817 31.681 30.6175 31.688 31.352 31.6729C31.9452 31.6579 32.5357 31.6359 33.1224 31.5951C33.884 31.5457 34.6374 31.4718 35.377 31.374C35.9068 31.3014 36.4304 31.2188 36.9479 31.1262C37.3206 31.0594 37.6838 30.9828 38.0471 30.9062C38.1657 30.8812 38.2843 30.8562 38.4032 30.8316C38.4516 30.8119 38.5073 30.7966 38.5677 30.7864C39.0713 30.6634 39.5675 30.5352 40.0461 30.3928C41.277 30.0296 42.4054 29.5961 43.405 29.1024C43.6212 28.9953 43.8337 28.887 44.0352 28.7734L44.0644 28.7569C44.2347 28.661 44.4037 28.5658 44.5785 28.4702C44.5993 28.4516 44.6221 28.4335 44.6469 28.416C44.9835 28.2105 45.2974 27.9971 45.5875 27.7768C46.9046 26.7819 47.7548 25.6686 48.0824 24.5099C48.1533 24.2818 48.1977 24.0521 48.2154 23.8217C48.2173 23.7783 48.2194 23.7349 48.2214 23.6915C48.239 23.3146 48.2566 22.9374 48.197 22.5602C48.1618 22.3326 48.0953 22.1072 48.0195 21.8823C47.9265 21.61 47.801 21.3403 47.6435 21.0745C47.3766 20.6133 47.02 20.1644 46.5781 19.7333C46.2833 19.446 45.5441 18.8765 45.5441 18.8765L45.4517 18.7957C45.4517 18.7957 45.6577 18.9006 45.7391 18.9484C46.392 19.3272 47.017 19.7167 47.6139 20.117C48.8632 20.9553 50.0071 21.8246 51.1104 22.7055C52.086 23.4849 53.0261 24.273 53.9664 25.0612C54.2587 25.3062 54.551 25.5512 54.8444 25.796C55.1634 26.0652 55.4878 26.3336 55.8122 26.6021C55.89 26.6664 55.9679 26.7308 56.0456 26.7952C56.0654 26.8175 56.0946 26.8377 56.1316 26.8546C56.2675 26.9897 56.4218 27.1205 56.5936 27.2464C56.9324 27.5237 57.278 27.7993 57.6303 28.0731C57.863 28.2533 58.1 28.4331 58.3373 28.6131Z" fill="url(#paint2_linear_1_260)"/>
<path id="Path_4" d="M39.9085 9.87118C38.6074 9.68074 37.2799 9.53199 35.9352 9.42599C35.082 9.3586 34.2239 9.30756 33.3608 9.27287C32.8009 9.2505 32.24 9.23759 31.6791 9.22168C31.4222 9.23114 31.1654 9.22168 30.9076 9.22168H29.9281C29.71 9.22168 29.491 9.23243 29.273 9.22426C28.4229 9.24878 27.5737 9.27932 26.7273 9.32921C25.6856 9.39154 24.6517 9.47941 23.6299 9.59245C21.5635 9.82196 19.5538 10.1506 17.633 10.5732C16.8014 10.7564 15.9864 10.9603 15.188 11.1753C14.7094 11.3044 14.2409 11.4429 13.7798 11.5852C13.4315 11.6928 13.0822 11.8003 12.7523 11.9186C12.7293 11.9234 12.707 11.929 12.6858 11.9354C12.1868 12.1074 11.6943 12.2795 11.2157 12.464C10.4068 12.7716 9.63327 13.0988 8.89821 13.4443C8.24791 13.7471 7.6311 14.0651 7.05016 14.397C6.91433 14.4757 6.7554 14.5467 6.65468 14.6383C6.60326 14.6566 6.55995 14.6794 6.52717 14.7054C4.77797 15.7533 3.3511 16.9096 2.28774 18.1409C2.17939 18.2527 2.08679 18.3676 2.01053 18.485C1.98281 18.5151 1.9514 18.5448 1.92737 18.5757C1.37519 19.2784 0.942647 20.0003 0.633737 20.7346C0.413456 21.2282 0.259156 21.7276 0.171724 22.2301C0.0987266 22.7545 0.0377409 24.0448 0.168028 24.7133C0.229014 25.0255 0.309404 25.3374 0.415667 25.6475C0.508069 25.9103 0.581991 26.1508 0.716899 26.4097L13.2615 25.146C13.2615 25.146 13.1386 24.8281 13.0767 24.6531C13.011 24.4539 12.9704 24.2535 12.939 24.0509C12.8969 23.7719 12.8868 23.492 12.9085 23.2125C12.9431 22.7436 13.0643 22.2769 13.2707 21.8176C13.45 21.4206 13.689 21.03 13.9859 20.6485C14.0034 20.6262 14.3694 20.1982 14.5532 20.0102C15.1116 19.4426 15.8092 18.9069 16.6323 18.414L16.7349 18.34C17.0121 18.171 17.3299 18.0191 17.6386 17.8634C18.4181 17.4701 19.2812 17.1146 20.2147 16.8023L20.284 16.7718C20.284 16.7718 20.6158 16.6617 20.7867 16.6092C21.8196 16.2965 22.9151 16.031 24.0578 15.8164C25.3027 15.5807 26.6013 15.4119 27.9285 15.3132C28.9936 15.2342 30.0727 15.2034 31.1506 15.2211C32.5451 15.2375 33.9311 15.3277 35.2819 15.49C36.339 15.619 38.4504 16.0375 38.5086 16.0491C38.5668 15.9734 38.7414 16.0573 38.7978 15.9885C38.9198 15.8401 42.9559 10.7714 43.1278 10.5547C43.1509 10.5254 43.0483 10.4484 43.0751 10.4213C43.0298 10.4097 40.9341 10.0226 39.9085 9.87118Z" fill="url(#paint3_linear_1_260)"/>
<path id="Path_5" d="M86.8739 31.7279C85.9565 31.729 85.0407 31.6928 84.1369 31.6195C82.5814 31.4957 81.082 31.2507 79.7016 30.8947C78.0041 30.4594 76.5451 29.8839 75.2108 29.2361C74.0918 28.6854 73.0577 28.0985 72.1163 27.4799C71.8751 27.3242 71.6367 27.1676 71.3974 27.0111C71.388 26.9937 71.3692 26.9777 71.3428 26.9646C71.0749 26.7762 70.8032 26.5896 70.5399 26.4003C69.3608 25.5525 68.2686 24.6798 67.1967 23.8014C66.987 23.6294 66.7625 23.4612 66.5499 23.2896C66.403 23.1704 65.479 22.3708 65.1944 22.1317C63.8943 21.0413 62.5877 19.9531 61.2045 18.885C61.1684 18.8567 61.0409 18.756 61.0123 18.7336C60.4178 18.2789 59.8061 17.8295 59.1771 17.3856C58.0933 16.6243 56.9669 15.878 55.7047 15.1778C55.433 15.0268 55.1752 14.8698 54.9008 14.7201C54.7335 14.6293 54.5801 14.5317 54.4027 14.4474C54.0802 14.2938 53.8021 14.1218 53.4667 13.9742C53.3687 13.9078 53.2546 13.8469 53.1266 13.7927C52.4047 13.4449 51.6543 13.1108 50.8757 12.7905C50.0305 12.4421 49.1499 12.1138 48.2339 11.8055L48.1101 11.7655C46.7766 11.3233 45.3677 10.9326 43.8975 10.5973C43.6147 10.5332 43.0511 10.4158 43.0511 10.4158L42.4329 11.141C42.2823 11.3294 38.5002 16.0445 38.5002 16.0445C38.5002 16.0445 39.1748 16.2187 39.5065 16.3116C41.2548 16.8032 42.772 17.4252 44.1571 18.1181C44.3918 18.2356 44.6191 18.3543 44.8427 18.4769C45.0137 18.5706 45.338 18.7663 45.338 18.7663L45.4618 18.8403L45.5293 18.8773L45.7501 18.993C45.7501 18.993 47.0225 19.7561 47.6176 20.1544C48.8669 20.9931 50.0108 21.8624 51.1141 22.7433C52.393 23.7645 53.609 24.8019 54.8481 25.8338C55.2473 26.1676 55.6477 26.5007 56.0493 26.833C56.0691 26.8553 56.0983 26.8755 56.1353 26.8924C56.2711 27.0274 56.4255 27.1583 56.5973 27.2842C56.9355 27.5615 57.281 27.8371 57.634 28.1109C58.0036 28.3995 58.3853 28.6856 58.7623 28.9712L58.8547 29.0387C59.6475 29.6344 60.4735 30.2194 61.3495 30.7906C61.7311 31.0405 62.1109 31.2909 62.5258 31.5292C62.5307 31.5347 62.5366 31.54 62.5434 31.5451C63.9065 32.3858 65.406 33.1767 67.0286 33.9108C68.4486 34.5509 69.9955 35.1269 71.6487 35.6313C73.96 36.339 76.489 36.879 79.149 37.2327C80.1055 37.3571 81.0756 37.4576 82.0551 37.5338C82.7364 37.588 83.4211 37.63 84.1092 37.6598C84.6932 37.6852 85.2799 37.699 85.8648 37.7179H86.604L87.0328 37.7153V31.7253C86.9773 31.7262 86.9256 31.7279 86.8739 31.7279Z" fill="#003380"/>
<path id="Path_6" d="M85.426 1.76416L80.7947 4.80992V7.63587L85.426 9.51167C85.426 9.51167 85.4297 1.76416 85.426 1.76416Z" fill="url(#paint4_linear_1_260)"/>
<path id="Path_7" d="M89.9749 9.51042L85.4259 7.64795V9.51042H89.9749Z" fill="#0066FF"/>
<path id="Path_8" d="M80.7947 9.5105V11.0289L85.4259 12.9193C85.4259 12.9193 85.4259 12.9167 85.4259 12.915V9.5105H80.7947Z" fill="url(#paint5_linear_1_260)"/>
<path id="Path_9" d="M80.7947 7.63452H76.4906L73.6455 9.51032H85.4259L80.7947 7.63452Z" fill="#0066FF"/>
<path id="Path_10" d="M81.9229 0.344727L70.2211 8.1245L73.6455 9.51038L85.4259 1.76287L81.9229 0.344727Z" fill="url(#paint6_linear_1_260)"/>
</g>
<defs>
<linearGradient id="paint0_linear_1_260" x1="85.8639" y1="37.7178" x2="86.6022" y2="37.7178" gradientUnits="userSpaceOnUse">
<stop offset="0.08" stop-color="#0E4AB7"/>
<stop offset="0.28" stop-color="#0C4DBF"/>
<stop offset="0.58" stop-color="#0856D6"/>
<stop offset="0.96" stop-color="#0164FA"/>
<stop offset="1" stop-color="#0066FF"/>
</linearGradient>
<linearGradient id="paint1_linear_1_260" x1="86.5995" y1="37.7174" x2="87.031" y2="37.7174" gradientUnits="userSpaceOnUse">
<stop offset="0.08" stop-color="#0E4AB7"/>
<stop offset="0.28" stop-color="#0C4DBF"/>
<stop offset="0.58" stop-color="#0856D6"/>
<stop offset="0.96" stop-color="#0164FA"/>
<stop offset="1" stop-color="#0066FF"/>
</linearGradient>
<linearGradient id="paint2_linear_1_260" x1="5.81266" y1="39.3104" x2="53.7154" y2="17.1489" gradientUnits="userSpaceOnUse">
<stop stop-color="#074097"/>
<stop offset="0.2" stop-color="#08419A"/>
<stop offset="0.34" stop-color="#0A44A3"/>
<stop offset="0.46" stop-color="#0D49B2"/>
<stop offset="0.49" stop-color="#0E4AB7"/>
<stop offset="0.52" stop-color="#0D4BBB"/>
<stop offset="0.84" stop-color="#045FEB"/>
<stop offset="1" stop-color="#0166FE"/>
</linearGradient>
<linearGradient id="paint3_linear_1_260" x1="19.2113" y1="0.174081" x2="7.53278" y2="28.7756" gradientUnits="userSpaceOnUse">
<stop stop-color="#003380"/>
<stop offset="0.03" stop-color="#003380"/>
<stop offset="0.23" stop-color="#003380"/>
<stop offset="0.4" stop-color="#023787"/>
<stop offset="0.57" stop-color="#063E94"/>
<stop offset="0.77" stop-color="#074097"/>
<stop offset="0.79" stop-color="#074097"/>
<stop offset="0.88" stop-color="#074097"/>
</linearGradient>
<linearGradient id="paint4_linear_1_260" x1="79.1971" y1="2.87218" x2="79.1971" y2="15.9636" gradientUnits="userSpaceOnUse">
<stop stop-color="#00317A"/>
<stop offset="1" stop-color="#0066FF"/>
</linearGradient>
<linearGradient id="paint5_linear_1_260" x1="72.7581" y1="1.79482" x2="72.7581" y2="17.0356" gradientUnits="userSpaceOnUse">
<stop stop-color="#00317A"/>
<stop offset="1" stop-color="#0066FF"/>
</linearGradient>
<linearGradient id="paint6_linear_1_260" x1="75.5144" y1="18.3887" x2="85.3211" y2="1.21812" gradientUnits="userSpaceOnUse">
<stop stop-color="#00317A"/>
<stop offset="1" stop-color="#0066FF"/>
</linearGradient>
</defs>
</svg>
